<svg width="207" height="69" viewBox="0 0 207 69" fill="none" xmlns="http://www.w3.org/2000/svg">
<g clip-path="url(#clip0_245_12271)">
<path d="M201.057 19.6783C200.772 20.4926 200.442 21.4913 200.112 22.5061C197.686 29.9106 195.127 37.7322 184.899 39.469L182.111 39.9103L181.584 36.1278L182.912 35.9313L184.252 35.7026C192.202 34.3509 194.395 27.6604 196.467 21.3269C196.768 20.4043 197.07 19.4818 197.444 18.4229L201.057 19.6783ZM10.4109 18.4229C10.7851 19.4818 11.0868 20.4043 11.3886 21.3269C13.4607 27.6604 15.6534 34.3509 23.6038 35.7026L24.9436 35.9313L26.2713 36.1278L25.7442 39.9103L22.956 39.469C12.7284 37.7322 10.1695 29.9106 7.74336 22.5061C7.41344 21.4913 7.08352 20.4926 6.79785 19.6783L10.4109 18.4229Z" fill="#F18020"/>
<path d="M160.722 7.66895L161.056 8.18638C164.609 13.6294 168.311 19.2971 162.38 26.513L159.411 24.0903C163.571 19.0284 160.65 14.556 157.85 10.2601L157.512 9.74669L160.722 7.66895Z" fill="#0B9444"/>
<path d="M201.016 40.1366C202.368 41.4843 204.56 41.4843 205.912 40.1366C207.264 38.7888 207.264 36.6036 205.912 35.2558C204.56 33.908 202.368 33.908 201.016 35.2558C199.664 36.6036 199.664 38.7888 201.016 40.1366Z" fill="#0B9444"/>
<path fill-rule="evenodd" clip-rule="evenodd" d="M151.493 17.2676C152.84 18.6154 152.84 20.8014 151.493 22.1451C150.137 23.4928 147.948 23.4928 146.596 22.1451C145.244 20.8014 145.244 18.6154 146.596 17.2676C147.948 15.9199 150.137 15.9199 151.493 17.2676ZM56.3625 17.2676C55.0146 18.6154 55.0146 20.8014 56.3625 22.1451C57.7183 23.4928 59.9071 23.4928 61.259 22.1451C62.6108 20.8014 62.6108 18.6154 61.259 17.2676C59.9071 15.9199 57.7183 15.9199 56.3625 17.2676ZM195.767 59.6648L191.928 62.1597L193.031 66.3553L189.57 63.688L185.825 65.9863L187.386 61.9231L184.022 59.1113L188.392 59.3079L190.093 55.1082L191.2 59.4563L195.767 59.6648Z" fill="#283890"/>
<path d="M50.3439 9.74669L50.0059 10.2601C47.2056 14.556 44.2846 19.0284 48.4448 24.0903L45.4755 26.513C39.545 19.2971 43.2466 13.6294 46.7993 8.18638L47.1332 7.66895L50.3439 9.74669Z" fill="#0B9444"/>
<path fill-rule="evenodd" clip-rule="evenodd" d="M35.9352 1.65234C34.5873 3.00007 34.5873 5.18611 35.9352 6.53384C36.5886 7.16126 37.4629 7.50802 38.37 7.49955C39.2772 7.49108 40.1448 7.12805 40.7863 6.48853C41.4278 5.84901 41.7919 4.98407 41.8004 4.0797C41.8089 3.17532 41.4611 2.30373 40.8317 1.65234C40.1823 1.00516 39.3017 0.641602 38.3835 0.641602C37.4652 0.641602 36.5846 1.00516 35.9352 1.65234ZM203.801 56.8369C202.087 55.8582 200.57 54.6027 199.041 53.3392C195.026 50.0181 190.918 46.6247 184.935 51.5062L182.509 48.546C190.934 41.671 196.265 46.0792 201.488 50.3951C202.92 51.5784 204.344 52.7536 205.704 53.5358L203.801 56.8369ZM171.919 1.65234C173.267 3.00007 173.267 5.18611 171.919 6.53384C171.266 7.16126 170.392 7.50802 169.484 7.49955C168.577 7.49108 167.71 7.12805 167.068 6.48853C166.427 5.84901 166.063 4.98407 166.054 4.0797C166.046 3.17532 166.393 2.30373 167.023 1.65234C167.672 1.00516 168.553 0.641602 169.471 0.641602C170.389 0.641602 171.27 1.00516 171.919 1.65234ZM2.15039 53.5358C3.51031 52.7536 4.93461 51.5784 6.36695 50.3951C11.5894 46.0792 16.9204 41.671 25.3455 48.546L22.9194 51.5062C16.9365 46.6247 12.8286 50.0181 8.8132 53.3392C7.2843 54.6027 5.76746 55.8582 4.05348 56.8369L2.15039 53.5358Z" fill="#ED1B24"/>
<path fill-rule="evenodd" clip-rule="evenodd" d="M31.3164 23.2404C29.9646 24.5882 29.9646 26.7702 31.3164 28.1219C32.6683 29.4656 34.8611 29.4656 36.213 28.1219C36.8423 27.4705 37.1902 26.5989 37.1817 25.6946C37.1732 24.7902 36.809 23.9252 36.1675 23.2857C35.526 22.6462 34.6584 22.2832 33.7513 22.2747C32.8441 22.2662 31.9698 22.613 31.3164 23.2404ZM190.926 3.75054L187.84 9.81932L192.399 14.412L185.941 13.5376L182.831 19.2815L181.805 12.8838L175.368 11.7527L181.153 8.7644L180.208 2.08594L184.883 6.86716L190.926 3.75054ZM176.538 23.2404C177.89 24.5882 177.89 26.7702 176.538 28.1219C175.187 29.4656 172.994 29.4656 171.642 28.1219C171.013 27.4705 170.665 26.5989 170.673 25.6946C170.682 24.7902 171.046 23.9252 171.687 23.2857C172.329 22.6462 173.196 22.2832 174.104 22.2747C175.011 22.2662 175.885 22.613 176.538 23.2404ZM16.9286 3.75054L20.0146 9.81932L15.4561 14.412L21.9137 13.5376L25.0238 19.2815L26.0498 12.8838L32.4873 11.7527L26.7016 8.7644L27.6471 2.08594L22.9718 6.86716L16.9286 3.75054Z" fill="#0186C9"/>
<path d="M6.83748 40.1366C5.48558 41.4843 3.29372 41.4843 1.94181 40.1366C0.589911 38.7888 0.589911 36.6036 1.94181 35.2558C3.29372 33.908 5.48558 33.908 6.83748 35.2558C8.18939 36.6036 8.18939 38.7888 6.83748 40.1366Z" fill="#0B9444"/>
<path fill-rule="evenodd" clip-rule="evenodd" d="M12.0889 59.665L15.9272 62.1599L14.8248 66.3555L18.285 63.6881L22.0308 65.9865L20.4697 61.9232L23.8333 59.1115L19.4638 59.308L17.7619 55.1084L16.6555 59.4564L12.0889 59.665Z" fill="#283890"/>
<path d="M47.4092 56.8369V52.5986L48.9521 52.3545V46.3193L47.4092 46.0752V41.8369H56.208C57.2562 41.8369 58.2458 41.8857 59.1768 41.9834C60.1143 42.0811 60.9411 42.2829 61.6572 42.5889C62.3734 42.8949 62.9333 43.3538 63.3369 43.9658C63.7471 44.5778 63.9521 45.4014 63.9521 46.4365C63.9521 47.3024 63.7926 48.0218 63.4736 48.5947C63.1546 49.1611 62.7119 49.6136 62.1455 49.9521C61.5856 50.2842 60.9346 50.5316 60.1924 50.6943C59.4567 50.8506 58.6624 50.9548 57.8096 51.0068C56.9567 51.0524 56.0876 51.0752 55.2021 51.0752V52.3545L56.7451 52.5986V56.8369H47.4092ZM55.2021 48.3896C55.9769 48.3896 56.5856 48.279 57.0283 48.0576C57.4775 47.8363 57.7021 47.335 57.7021 46.5537C57.7021 46.0394 57.598 45.6553 57.3896 45.4014C57.1878 45.141 56.9014 44.9684 56.5303 44.8838C56.1592 44.7992 55.7165 44.7568 55.2021 44.7568V48.3896ZM65.1436 56.8369V52.9404L66.3154 52.7158V47.1787L65.1436 46.9541V43.0869H77.2139V48.0869H75.876C75.4398 47.7614 74.9059 47.501 74.2744 47.3057C73.6429 47.1104 72.9495 47.0127 72.1943 47.0127V49.1318L74.8994 48.5557V51.3389L72.1943 50.7529V52.9111C72.9561 52.9111 73.6527 52.8167 74.2842 52.6279C74.9222 52.4391 75.4528 52.1755 75.876 51.8369H77.2139V56.8369H65.1436ZM78.6006 56.8369V52.9404L79.7725 52.7158V47.1592L78.6006 46.9346V43.0869H86.5986C87.445 43.0869 88.2686 43.1162 89.0693 43.1748C89.8701 43.2334 90.6025 43.3636 91.2666 43.5654C91.9307 43.7673 92.4808 44.0732 92.917 44.4834C93.3597 44.8936 93.6429 45.4502 93.7666 46.1533C93.8317 46.5179 93.8643 46.9183 93.8643 47.3545C93.8643 48.0902 93.7438 48.6859 93.5029 49.1416C93.2686 49.5973 92.943 49.9652 92.5264 50.2451C92.1097 50.5251 91.6247 50.7725 91.0713 50.9873C91.3968 51.6318 91.8298 52.2633 92.3701 52.8818C92.9105 53.4938 93.4085 54.0602 93.8643 54.5811V56.8369H88.0244C87.6273 56.0947 87.2399 55.32 86.8623 54.5127C86.4912 53.6989 86.195 52.8298 85.9736 51.9053H85.6514V56.8369H78.6006ZM85.6514 49.2588C86.4001 49.2588 86.9795 49.1514 87.3896 48.9365C87.7998 48.7217 88.0049 48.2399 88.0049 47.4912C88.0049 46.7425 87.7965 46.2575 87.3799 46.0361C86.9697 45.8148 86.3936 45.7041 85.6514 45.7041V49.2588ZM95.124 56.8369V52.9404L96.2959 52.7158V47.1787L95.124 46.9541V43.0869H106.481V48.0869H104.851C104.571 47.7939 104.2 47.5433 103.737 47.335C103.275 47.1201 102.754 47.0127 102.175 47.0127V49.4248L104.675 48.8486V51.8271L102.175 51.2412V52.7158L103.347 52.9697V56.8369H95.124ZM107.741 56.8369V52.9404L108.913 52.7158V47.1787L107.741 46.9541V43.0869H119.812V48.0869H118.474C118.037 47.7614 117.504 47.501 116.872 47.3057C116.241 47.1104 115.547 47.0127 114.792 47.0127V49.1318L117.497 48.5557V51.3389L114.792 50.7529V52.9111C115.554 52.9111 116.25 52.8167 116.882 52.6279C117.52 52.4391 118.05 52.1755 118.474 51.8369H119.812V56.8369H107.741ZM128.806 57.0127C127.191 57.0127 125.788 56.749 124.597 56.2217C123.412 55.6878 122.497 54.887 121.853 53.8193C121.208 52.7451 120.886 51.3975 120.886 49.7764C120.886 48.1553 121.201 46.8239 121.833 45.7822C122.471 44.7406 123.376 43.9691 124.548 43.4678C125.726 42.9665 127.123 42.7158 128.737 42.7158C129.903 42.7158 130.951 42.82 131.882 43.0283C132.819 43.2301 133.672 43.5036 134.44 43.8486V48.0967H131.677C131.429 47.7516 131.127 47.4554 130.769 47.208C130.417 46.9606 129.981 46.8369 129.46 46.8369C128.64 46.8369 127.985 47.1201 127.497 47.6865C127.015 48.2464 126.774 48.943 126.774 49.7764C126.774 50.7855 127.032 51.5342 127.546 52.0225C128.06 52.5042 128.815 52.7451 129.812 52.7451C130.638 52.7451 131.423 52.6572 132.165 52.4814C132.914 52.3057 133.672 52.1038 134.44 51.876V56.124C132.5 56.7165 130.622 57.0127 128.806 57.0127ZM138.298 56.8369V52.9404L139.47 52.7158V46.7197C139.151 46.7197 138.828 46.7718 138.503 46.876C138.184 46.9801 137.917 47.1331 137.702 47.335C137.487 47.5368 137.38 47.7874 137.38 48.0869H135.749V43.0869H149.069V48.0869H147.438C147.438 47.7874 147.328 47.5368 147.106 47.335C146.892 47.1331 146.625 46.9801 146.306 46.876C145.987 46.7718 145.668 46.7197 145.349 46.7197V52.7158L146.521 52.9404V56.8369H138.298ZM151.481 51.8369L150.222 45.7334V41.8369H157.731V45.7334L156.481 51.8369H151.481ZM150.856 56.8369V53.0869H157.106V56.8369H150.856Z" fill="black"/>
</g>
<defs>
<clipPath id="clip0_245_12271">
<rect width="206" height="68" fill="white" transform="translate(0.927734 0.641602)"/>
</clipPath>
</defs>
</svg>
