<svg width="303" height="164" viewBox="0 0 303 164" fill="none" xmlns="http://www.w3.org/2000/svg">
<path d="M183.201 142.201C182.666 142.201 182.152 142.131 181.661 141.99C181.17 141.844 180.774 141.655 180.475 141.426L181.001 140.259C181.288 140.463 181.626 140.632 182.015 140.766C182.41 140.893 182.809 140.957 183.211 140.957C183.517 140.957 183.763 140.928 183.948 140.871C184.139 140.807 184.279 140.721 184.368 140.613C184.458 140.504 184.502 140.38 184.502 140.239C184.502 140.061 184.432 139.921 184.292 139.819C184.152 139.71 183.967 139.624 183.737 139.56C183.507 139.49 183.252 139.426 182.972 139.369C182.697 139.305 182.42 139.229 182.139 139.139C181.865 139.05 181.613 138.935 181.384 138.795C181.154 138.655 180.966 138.47 180.819 138.24C180.679 138.01 180.609 137.717 180.609 137.36C180.609 136.977 180.711 136.63 180.915 136.317C181.125 135.998 181.438 135.746 181.852 135.561C182.273 135.37 182.799 135.274 183.431 135.274C183.852 135.274 184.266 135.325 184.675 135.427C185.083 135.523 185.443 135.67 185.756 135.867L185.277 137.044C184.965 136.866 184.652 136.735 184.34 136.652C184.027 136.563 183.721 136.518 183.421 136.518C183.122 136.518 182.876 136.553 182.685 136.623C182.493 136.693 182.356 136.786 182.273 136.901C182.19 137.009 182.149 137.137 182.149 137.283C182.149 137.455 182.219 137.596 182.359 137.704C182.5 137.806 182.685 137.889 182.914 137.953C183.144 138.017 183.396 138.081 183.67 138.144C183.951 138.208 184.228 138.281 184.502 138.364C184.783 138.447 185.038 138.559 185.268 138.699C185.497 138.84 185.682 139.024 185.823 139.254C185.969 139.484 186.043 139.774 186.043 140.125C186.043 140.501 185.937 140.845 185.727 141.158C185.517 141.47 185.201 141.722 184.78 141.914C184.365 142.105 183.839 142.201 183.201 142.201ZM189.484 142.162C188.929 142.162 188.435 142.051 188.001 141.828C187.567 141.598 187.226 141.282 186.977 140.88C186.735 140.479 186.614 140.023 186.614 139.512C186.614 138.996 186.735 138.54 186.977 138.144C187.226 137.743 187.567 137.43 188.001 137.207C188.435 136.977 188.929 136.862 189.484 136.862C190.026 136.862 190.498 136.977 190.9 137.207C191.302 137.43 191.598 137.752 191.79 138.173L190.632 138.795C190.498 138.553 190.329 138.374 190.125 138.259C189.927 138.144 189.71 138.087 189.474 138.087C189.219 138.087 188.99 138.144 188.786 138.259C188.581 138.374 188.419 138.537 188.298 138.747C188.183 138.958 188.125 139.213 188.125 139.512C188.125 139.812 188.183 140.067 188.298 140.278C188.419 140.488 188.581 140.651 188.786 140.766C188.99 140.88 189.219 140.938 189.474 140.938C189.71 140.938 189.927 140.884 190.125 140.775C190.329 140.66 190.498 140.479 190.632 140.23L191.79 140.861C191.598 141.276 191.302 141.598 190.9 141.828C190.498 142.051 190.026 142.162 189.484 142.162ZM195.749 136.862C196.157 136.862 196.521 136.945 196.84 137.111C197.165 137.271 197.42 137.519 197.605 137.857C197.79 138.189 197.883 138.616 197.883 139.139V142.086H196.39V139.369C196.39 138.954 196.298 138.648 196.113 138.45C195.934 138.253 195.679 138.154 195.347 138.154C195.111 138.154 194.898 138.205 194.706 138.307C194.522 138.403 194.375 138.553 194.266 138.757C194.164 138.961 194.113 139.222 194.113 139.541V142.086H192.621V134.987H194.113V138.364L193.778 137.934C193.963 137.589 194.228 137.325 194.573 137.14C194.917 136.955 195.309 136.862 195.749 136.862ZM201.722 142.162C201.174 142.162 200.686 142.048 200.258 141.818C199.837 141.588 199.503 141.276 199.254 140.88C199.011 140.479 198.89 140.023 198.89 139.512C198.89 138.996 199.011 138.54 199.254 138.144C199.503 137.743 199.837 137.43 200.258 137.207C200.686 136.977 201.174 136.862 201.722 136.862C202.264 136.862 202.749 136.977 203.176 137.207C203.604 137.43 203.938 137.739 204.181 138.135C204.423 138.53 204.544 138.989 204.544 139.512C204.544 140.023 204.423 140.479 204.181 140.88C203.938 141.276 203.604 141.588 203.176 141.818C202.749 142.048 202.264 142.162 201.722 142.162ZM201.722 140.938C201.971 140.938 202.194 140.88 202.392 140.766C202.59 140.651 202.746 140.488 202.861 140.278C202.975 140.061 203.033 139.806 203.033 139.512C203.033 139.213 202.975 138.958 202.861 138.747C202.746 138.537 202.59 138.374 202.392 138.259C202.194 138.144 201.971 138.087 201.722 138.087C201.473 138.087 201.25 138.144 201.052 138.259C200.855 138.374 200.695 138.537 200.574 138.747C200.459 138.958 200.402 139.213 200.402 139.512C200.402 139.806 200.459 140.061 200.574 140.278C200.695 140.488 200.855 140.651 201.052 140.766C201.25 140.88 201.473 140.938 201.722 140.938ZM207.991 142.162C207.443 142.162 206.955 142.048 206.527 141.818C206.106 141.588 205.772 141.276 205.523 140.88C205.28 140.479 205.159 140.023 205.159 139.512C205.159 138.996 205.28 138.54 205.523 138.144C205.772 137.743 206.106 137.43 206.527 137.207C206.955 136.977 207.443 136.862 207.991 136.862C208.533 136.862 209.018 136.977 209.445 137.207C209.873 137.43 210.207 137.739 210.45 138.135C210.692 138.53 210.813 138.989 210.813 139.512C210.813 140.023 210.692 140.479 210.45 140.88C210.207 141.276 209.873 141.588 209.445 141.818C209.018 142.048 208.533 142.162 207.991 142.162ZM207.991 140.938C208.24 140.938 208.463 140.88 208.661 140.766C208.859 140.651 209.015 140.488 209.13 140.278C209.244 140.061 209.302 139.806 209.302 139.512C209.302 139.213 209.244 138.958 209.13 138.747C209.015 138.537 208.859 138.374 208.661 138.259C208.463 138.144 208.24 138.087 207.991 138.087C207.742 138.087 207.519 138.144 207.321 138.259C207.124 138.374 206.964 138.537 206.843 138.747C206.728 138.958 206.671 139.213 206.671 139.512C206.671 139.806 206.728 140.061 206.843 140.278C206.964 140.488 207.124 140.651 207.321 140.766C207.519 140.88 207.742 140.938 207.991 140.938ZM211.811 142.086V134.987H213.303V142.086H211.811ZM216.42 142.162C215.98 142.162 215.556 142.111 215.148 142.009C214.746 141.901 214.427 141.767 214.191 141.608L214.689 140.536C214.925 140.683 215.202 140.804 215.521 140.9C215.846 140.989 216.165 141.034 216.478 141.034C216.822 141.034 217.064 140.992 217.205 140.909C217.351 140.826 217.425 140.711 217.425 140.565C217.425 140.444 217.367 140.354 217.253 140.297C217.144 140.233 216.997 140.185 216.812 140.153C216.628 140.122 216.423 140.09 216.2 140.058C215.983 140.026 215.763 139.984 215.54 139.933C215.317 139.876 215.113 139.793 214.928 139.685C214.743 139.576 214.593 139.429 214.478 139.245C214.37 139.06 214.315 138.82 214.315 138.527C214.315 138.202 214.408 137.915 214.593 137.666C214.784 137.417 215.059 137.223 215.416 137.082C215.773 136.936 216.2 136.862 216.698 136.862C217.048 136.862 217.406 136.901 217.769 136.977C218.133 137.054 218.436 137.165 218.678 137.312L218.181 138.374C217.932 138.227 217.68 138.128 217.425 138.077C217.176 138.02 216.934 137.991 216.698 137.991C216.366 137.991 216.124 138.036 215.971 138.125C215.817 138.214 215.741 138.329 215.741 138.47C215.741 138.597 215.795 138.693 215.904 138.757C216.018 138.82 216.168 138.871 216.353 138.91C216.538 138.948 216.739 138.983 216.956 139.015C217.179 139.04 217.402 139.082 217.626 139.139C217.849 139.197 218.05 139.28 218.228 139.388C218.413 139.49 218.563 139.634 218.678 139.819C218.793 139.997 218.85 140.233 218.85 140.527C218.85 140.845 218.755 141.129 218.563 141.378C218.372 141.62 218.094 141.812 217.731 141.952C217.374 142.092 216.937 142.162 216.42 142.162Z" fill="white"/>
<path d="M199.134 77.1025C200.482 77.0359 201.832 77.1627 203.145 77.4775C204.034 77.6855 204.907 77.9569 205.757 78.29C208.309 79.2973 210.598 80.8726 212.447 82.8965C213.562 84.1172 214.504 85.4851 215.248 86.9609C215.926 88.3273 216.434 89.7713 216.762 91.2607C216.934 92.038 217.047 92.8277 217.1 93.6221C217.15 94.4349 217.157 95.2499 217.123 96.0635C217.089 97.0418 216.958 98.0143 216.731 98.9668C216.535 99.7947 216.29 100.611 215.995 101.409C215.643 102.315 215.224 103.193 214.741 104.036C214.197 105.028 213.622 105.999 213.068 106.98C212.352 108.248 211.616 109.503 210.89 110.768C210.275 111.847 209.686 112.94 209.048 114.002C208.446 115.014 207.895 116.025 207.294 117.037C206.693 118.049 206.129 119.091 205.541 120.113C204.865 121.3 204.161 122.474 203.476 123.657C202.725 124.959 201.989 126.268 201.232 127.566C201.065 127.9 200.861 128.215 200.624 128.504C200.394 128.723 200.118 128.887 199.816 128.984C199.514 129.082 199.194 129.109 198.88 129.065C198.565 129.022 198.264 128.909 198 128.733C197.736 128.558 197.515 128.325 197.354 128.052C196.603 126.672 195.789 125.33 194.988 123.971C194.292 122.761 193.597 121.548 192.903 120.332L191.278 117.52C190.66 116.444 190.048 115.364 189.427 114.292C188.805 113.22 188.153 112.11 187.524 111.014C186.602 109.398 185.697 107.773 184.768 106.161C184.146 105.089 183.517 104.015 182.956 102.909C182.443 101.863 182.034 100.768 181.736 99.6416C181.501 98.7689 181.334 97.879 181.236 96.9805C181.151 96.0839 181.125 95.1822 181.158 94.2822C181.184 93.261 181.309 92.2444 181.53 91.2471C181.739 90.3142 182.017 89.398 182.361 88.5059C182.803 87.3477 183.37 86.2404 184.051 85.2041C184.56 84.4207 185.132 83.6802 185.764 82.9912C186.378 82.3064 187.045 81.6702 187.758 81.0889C188.509 80.4841 189.305 79.9379 190.14 79.4541C191.232 78.8303 192.384 78.3178 193.579 77.9258C194.678 77.5676 195.81 77.3166 196.958 77.1768C197.681 77.1099 198.408 77.0851 199.134 77.1025Z" fill="url(#paint0_linear_245_4366)"/>
<path d="M191.204 94.3822V97.3617C191.204 98.1357 191.625 98.8567 192.298 99.2279L197.56 102.123C198.191 102.472 198.949 102.472 199.58 102.123L204.841 99.2279C205.515 98.8567 205.936 98.1357 205.936 97.3617V94.3822L199.58 97.8812C198.949 98.2312 198.191 98.2312 197.56 97.8812L191.204 94.3822ZM197.56 84.1395L188.689 89.0169C187.963 89.4199 187.963 90.4802 188.689 90.8831L197.56 95.7606C198.191 96.1105 198.949 96.1105 199.58 95.7606L208.04 91.1058V97.3723C208.04 97.9555 208.514 98.4326 209.092 98.4326C209.671 98.4326 210.145 97.9555 210.145 97.3723V90.5756C210.145 90.1833 209.934 89.8334 209.597 89.6425L199.58 84.1395C198.949 83.8001 198.191 83.8001 197.56 84.1395Z" fill="white"/>
<path d="M59.4376 142.201C58.9209 142.201 58.4394 142.118 57.9929 141.952C57.5529 141.78 57.1702 141.537 56.8449 141.225C56.5196 140.912 56.2645 140.546 56.0795 140.125C55.9009 139.704 55.8117 139.241 55.8117 138.737C55.8117 138.234 55.9009 137.771 56.0795 137.35C56.2645 136.929 56.5196 136.563 56.8449 136.25C57.1766 135.938 57.5624 135.698 58.0025 135.533C58.4426 135.36 58.9241 135.274 59.4471 135.274C60.0275 135.274 60.5505 135.376 61.0161 135.58C61.4881 135.778 61.8835 136.071 62.2024 136.461L61.2075 137.379C60.9779 137.117 60.7227 136.923 60.4421 136.795C60.1615 136.661 59.8553 136.594 59.5237 136.594C59.2111 136.594 58.9241 136.645 58.6626 136.748C58.4011 136.85 58.1747 136.996 57.9834 137.188C57.792 137.379 57.6421 137.605 57.5337 137.867C57.4317 138.128 57.3806 138.419 57.3806 138.737C57.3806 139.056 57.4317 139.347 57.5337 139.608C57.6421 139.87 57.792 140.096 57.9834 140.287C58.1747 140.479 58.4011 140.625 58.6626 140.727C58.9241 140.829 59.2111 140.88 59.5237 140.88C59.8553 140.88 60.1615 140.817 60.4421 140.689C60.7227 140.555 60.9779 140.354 61.2075 140.086L62.2024 141.005C61.8835 141.394 61.4881 141.691 61.0161 141.895C60.5505 142.099 60.0243 142.201 59.4376 142.201ZM66.2729 142.086V141.081L66.1772 140.861V139.063C66.1772 138.744 66.0784 138.495 65.8807 138.317C65.6893 138.138 65.3927 138.049 64.9909 138.049C64.7167 138.049 64.4456 138.093 64.1777 138.183C63.9162 138.266 63.693 138.38 63.508 138.527L62.9723 137.484C63.2529 137.286 63.591 137.133 63.9864 137.025C64.3818 136.917 64.7836 136.862 65.1918 136.862C65.9763 136.862 66.5854 137.047 67.0191 137.417C67.4528 137.787 67.6697 138.364 67.6697 139.149V142.086H66.2729ZM64.7039 142.162C64.3021 142.162 63.9577 142.096 63.6707 141.962C63.3837 141.821 63.1636 141.633 63.0106 141.397C62.8575 141.161 62.7809 140.896 62.7809 140.603C62.7809 140.297 62.8543 140.029 63.001 139.799C63.1541 139.57 63.3932 139.391 63.7185 139.264C64.0438 139.13 64.4679 139.063 64.9909 139.063H66.359V139.933H65.1536C64.8028 139.933 64.5604 139.991 64.4265 140.106C64.2989 140.22 64.2351 140.364 64.2351 140.536C64.2351 140.727 64.3085 140.88 64.4552 140.995C64.6082 141.104 64.8155 141.158 65.077 141.158C65.3258 141.158 65.549 141.101 65.7467 140.986C65.9444 140.865 66.0879 140.689 66.1772 140.46L66.4068 141.148C66.2984 141.48 66.1007 141.732 65.8137 141.904C65.5267 142.076 65.1568 142.162 64.7039 142.162ZM75.6121 136.862C76.0203 136.862 76.3807 136.945 76.6932 137.111C77.0121 137.271 77.2609 137.519 77.4394 137.857C77.6244 138.189 77.7169 138.616 77.7169 139.139V142.086H76.2244V139.369C76.2244 138.954 76.1383 138.648 75.9661 138.45C75.7939 138.253 75.5515 138.154 75.239 138.154C75.0222 138.154 74.8276 138.205 74.6554 138.307C74.4832 138.403 74.3493 138.549 74.2536 138.747C74.1579 138.945 74.1101 139.197 74.1101 139.503V142.086H72.6177V139.369C72.6177 138.954 72.5315 138.648 72.3593 138.45C72.1935 138.253 71.9543 138.154 71.6418 138.154C71.425 138.154 71.2304 138.205 71.0582 138.307C70.886 138.403 70.7521 138.549 70.6564 138.747C70.5607 138.945 70.5129 139.197 70.5129 139.503V142.086H69.0204V136.939H70.4459V138.345L70.1781 137.934C70.3566 137.583 70.6086 137.318 70.9339 137.14C71.2655 136.955 71.6418 136.862 72.0628 136.862C72.5347 136.862 72.9461 136.984 73.2969 137.226C73.6541 137.462 73.8901 137.825 74.0049 138.317L73.4787 138.173C73.6509 137.771 73.9251 137.452 74.3014 137.216C74.6841 136.98 75.121 136.862 75.6121 136.862ZM82.0969 142.162C81.6632 142.162 81.2837 142.067 80.9585 141.875C80.6332 141.684 80.3781 141.394 80.1931 141.005C80.0145 140.609 79.9252 140.112 79.9252 139.512C79.9252 138.906 80.0113 138.409 80.1835 138.02C80.3557 137.631 80.6045 137.341 80.9298 137.149C81.255 136.958 81.6441 136.862 82.0969 136.862C82.5817 136.862 83.0154 136.974 83.3981 137.197C83.7871 137.414 84.0933 137.72 84.3165 138.116C84.5461 138.511 84.6609 138.977 84.6609 139.512C84.6609 140.055 84.5461 140.523 84.3165 140.919C84.0933 141.314 83.7871 141.62 83.3981 141.837C83.0154 142.054 82.5817 142.162 82.0969 142.162ZM79.0546 143.942V136.939H80.4801V137.991L80.4514 139.522L80.5471 141.043V143.942H79.0546ZM81.8386 140.938C82.0874 140.938 82.3074 140.88 82.4988 140.766C82.6965 140.651 82.8527 140.488 82.9675 140.278C83.0887 140.061 83.1493 139.806 83.1493 139.512C83.1493 139.213 83.0887 138.958 82.9675 138.747C82.8527 138.537 82.6965 138.374 82.4988 138.259C82.3074 138.144 82.0874 138.087 81.8386 138.087C81.5899 138.087 81.3667 138.144 81.1689 138.259C80.9712 138.374 80.815 138.537 80.7001 138.747C80.5853 138.958 80.5279 139.213 80.5279 139.512C80.5279 139.806 80.5853 140.061 80.7001 140.278C80.815 140.488 80.9712 140.651 81.1689 140.766C81.3667 140.88 81.5899 140.938 81.8386 140.938ZM87.3916 142.162C86.9515 142.162 86.5274 142.111 86.1192 142.009C85.7174 141.901 85.3985 141.767 85.1625 141.608L85.66 140.536C85.896 140.683 86.1734 140.804 86.4923 140.9C86.8176 140.989 87.1365 141.034 87.449 141.034C87.7934 141.034 88.0358 140.992 88.1761 140.909C88.3228 140.826 88.3962 140.711 88.3962 140.565C88.3962 140.444 88.3388 140.354 88.2239 140.297C88.1155 140.233 87.9688 140.185 87.7839 140.153C87.5989 140.122 87.3948 140.09 87.1716 140.058C86.9547 140.026 86.7347 139.984 86.5114 139.933C86.2882 139.876 86.0841 139.793 85.8992 139.685C85.7142 139.576 85.5643 139.429 85.4495 139.245C85.3411 139.06 85.2869 138.82 85.2869 138.527C85.2869 138.202 85.3794 137.915 85.5643 137.666C85.7557 137.417 86.0299 137.223 86.3871 137.082C86.7442 136.936 87.1716 136.862 87.6691 136.862C88.0199 136.862 88.377 136.901 88.7406 136.977C89.1041 137.054 89.4071 137.165 89.6494 137.312L89.152 138.374C88.9032 138.227 88.6513 138.128 88.3962 138.077C88.1474 138.02 87.905 137.991 87.6691 137.991C87.3374 137.991 87.095 138.036 86.942 138.125C86.7889 138.214 86.7124 138.329 86.7124 138.47C86.7124 138.597 86.7666 138.693 86.875 138.757C86.9898 138.82 87.1397 138.871 87.3246 138.91C87.5096 138.948 87.7105 138.983 87.9274 139.015C88.1506 139.04 88.3738 139.082 88.5971 139.139C88.8203 139.197 89.0212 139.28 89.1998 139.388C89.3847 139.49 89.5346 139.634 89.6494 139.819C89.7642 139.997 89.8216 140.233 89.8216 140.527C89.8216 140.845 89.726 141.129 89.5346 141.378C89.3433 141.62 89.0658 141.812 88.7023 141.952C88.3451 142.092 87.9082 142.162 87.3916 142.162Z" fill="white"/>
<path d="M73.2354 77.1025C74.5832 77.0359 75.934 77.1627 77.2461 77.4775C78.1351 77.6855 79.0085 77.9569 79.8584 78.29C82.4107 79.2973 84.6992 80.8726 86.5488 82.8965C87.6639 84.1172 88.606 85.4851 89.3496 86.9609C90.0277 88.3273 90.536 89.7713 90.8633 91.2607C91.0357 92.038 91.1487 92.8277 91.2012 93.6221C91.2512 94.4349 91.2589 95.2499 91.2246 96.0635C91.1902 97.0418 91.0593 98.0143 90.833 98.9668C90.6368 99.7947 90.3911 100.611 90.0967 101.409C89.7449 102.315 89.3255 103.193 88.8428 104.036C88.2988 105.028 87.724 105.999 87.1699 106.98C86.4537 108.248 85.7176 109.503 84.9912 110.768C84.3763 111.847 83.788 112.94 83.1494 114.002C82.548 115.014 81.9969 116.025 81.3955 117.037C80.7941 118.049 80.2305 119.091 79.6426 120.113C78.9668 121.3 78.263 122.474 77.5771 123.657C76.827 124.959 76.0908 126.268 75.334 127.566C75.1666 127.9 74.9623 128.215 74.7256 128.504C74.496 128.723 74.22 128.887 73.918 128.984C73.616 129.082 73.2958 129.109 72.9814 129.065C72.667 129.022 72.3658 128.909 72.1016 128.733C71.8373 128.558 71.6166 128.325 71.4551 128.052C70.705 126.672 69.8906 125.33 69.0898 123.971C68.3938 122.761 67.6986 121.548 67.0049 120.332L65.3799 117.52C64.7616 116.444 64.15 115.364 63.5283 114.292C62.9066 113.22 62.2544 112.11 61.626 111.014C60.7036 109.398 59.7982 107.773 58.8691 106.161C58.2474 105.089 57.6185 104.015 57.0576 102.909C56.5444 101.863 56.1358 100.768 55.8379 99.6416C55.6024 98.7689 55.4353 97.879 55.3379 96.9805C55.2525 96.0839 55.2261 95.1822 55.2598 94.2822C55.2856 93.261 55.4105 92.2444 55.6318 91.2471C55.841 90.3142 56.1188 89.398 56.4629 88.5059C56.9048 87.3477 57.4714 86.2404 58.1523 85.2041C58.6612 84.4207 59.234 83.6802 59.8652 82.9912C60.4791 82.3064 61.1463 81.6702 61.8594 81.0889C62.6104 80.4841 63.4068 79.9379 64.2412 79.4541C65.3331 78.8303 66.4854 78.3178 67.6807 77.9258C68.78 77.5676 69.9117 77.3166 71.0596 77.1768C71.7827 77.1099 72.5093 77.0851 73.2354 77.1025Z" fill="url(#paint1_linear_245_4366)"/>
<path d="M65.874 100.07C64.4629 100.07 63.0597 100.07 61.6485 100.07C61.0506 100.07 60.9469 99.9982 60.7396 99.4402C60.5882 99.0176 60.4367 98.5871 60.3011 98.1566C60.2055 97.8695 60.2055 97.5905 60.5403 97.455C60.8114 97.3433 61.0506 97.4948 61.1941 97.8616C61.2658 98.0449 61.3456 98.2363 61.3934 98.4276C61.4731 98.7705 61.6007 98.7067 61.792 98.4994C62.9401 97.2955 63.7772 95.8764 64.5426 94.4174C65.4993 92.5837 66.3364 90.6862 67.046 88.7329C67.1497 88.4538 67.1975 88.1748 67.1895 87.8798C67.1815 87.4652 67.1815 87.0586 67.1895 86.644C67.1975 86.3251 67.333 86.0859 67.6759 86.0859C68.0107 86.0859 68.1143 86.3331 68.1143 86.6361C68.1143 86.7796 68.1143 86.931 68.1143 87.0745C68.1303 88.0711 67.9708 87.9515 69.0153 87.9515C71.4708 87.9595 73.9264 87.9515 76.39 87.9515C76.4936 87.9515 76.6052 87.9595 76.7089 87.9515C77.0198 87.9276 77.1155 88.0472 77.0118 88.3502C76.2066 90.6622 75.3216 92.9345 74.1656 95.0951C73.4162 96.4903 72.579 97.8297 71.4708 98.9777C71.128 99.3365 71.1041 99.3285 70.9606 98.8661C70.8569 98.5392 70.7453 98.2124 70.6497 97.8775C70.5859 97.6702 70.4902 97.4789 70.2351 97.5586C69.964 97.6383 70.0358 97.8616 70.0995 98.0609C70.251 98.5711 70.4105 99.0734 70.5699 99.5837C70.7055 100.022 70.6736 100.078 70.2271 100.078C68.7681 100.07 67.3171 100.07 65.874 100.07Z" fill="white"/>
<path d="M78.5333 88.541C78.7805 89.1629 79.0117 89.7927 79.2668 90.4146C80.3511 93.0695 81.6427 95.6048 83.4365 97.8611C83.6358 98.1082 83.8511 98.3474 84.0504 98.5945C84.17 98.7381 84.2497 98.7301 84.3374 98.5627C84.5049 98.2278 84.6803 97.9009 84.8636 97.574C85.0071 97.311 85.2065 97.1037 85.5333 97.2711C85.8682 97.4465 85.8522 97.7335 85.7087 98.0205C85.4297 98.5627 85.1347 99.0968 84.8716 99.6469C84.7201 99.9658 84.4889 100.085 84.1461 100.085C82.416 100.077 80.6939 100.085 78.9639 100.077C78.4775 100.077 78.4456 100.038 78.4456 99.5513C78.4377 96.9602 78.4297 94.369 78.4297 91.7859C78.4297 90.8531 78.4297 89.9283 78.4297 88.9955C78.4297 88.8519 78.4297 88.7084 78.4297 88.5649C78.4616 88.557 78.5014 88.549 78.5333 88.541Z" fill="white"/>
<path d="M77.6564 88.5977C77.6644 88.781 77.6724 88.9166 77.6724 89.0441C77.6724 92.5362 77.6804 96.0282 77.6804 99.5122C77.6804 100.07 77.6804 100.07 77.1302 100.07C75.3284 100.07 73.5186 100.07 71.7168 100.07C71.5892 100.07 71.4138 100.126 71.358 99.9826C71.3022 99.8311 71.4856 99.7753 71.5733 99.6876C72.5619 98.7469 73.3512 97.6546 74.0448 96.4826C75.448 94.1387 76.4765 91.6273 77.3854 89.0521C77.4412 88.9166 77.4492 88.7491 77.6564 88.5977Z" fill="white"/>
<g filter="url(#filter0_d_245_4366)">
<path d="M124.824 27.678C121.545 27.7792 118.864 29.0745 116.779 31.5637H112.711C111.052 31.5637 109.656 31.1539 108.522 30.3342C107.389 29.5146 106.822 28.3155 106.822 26.737C106.822 19.5931 108.077 16.0211 110.586 16.0211C110.708 16.0211 111.148 16.2336 111.907 16.6586C112.666 17.0836 113.652 17.5136 114.867 17.9488C116.081 18.3839 117.285 18.6014 118.479 18.6014C119.835 18.6014 121.181 18.3687 122.517 17.9032C122.415 18.652 122.365 19.3199 122.365 19.9068C122.365 22.7198 123.184 25.3102 124.824 27.678ZM157.336 47.0152C157.336 49.4437 156.597 51.3612 155.12 52.7678C153.642 54.1743 151.679 54.8776 149.23 54.8776H122.699C120.25 54.8776 118.287 54.1743 116.81 52.7678C115.332 51.3612 114.594 49.4437 114.594 47.0152C114.594 45.9426 114.629 44.8953 114.7 43.8733C114.771 42.8513 114.912 41.7483 115.125 40.5644C115.337 39.3805 115.605 38.2826 115.929 37.2707C116.253 36.2588 116.688 35.2722 117.235 34.3109C117.781 33.3497 118.408 32.53 119.117 31.8521C119.825 31.1741 120.69 30.6328 121.712 30.228C122.734 29.8232 123.862 29.6208 125.097 29.6208C125.299 29.6208 125.734 29.8384 126.402 30.2735C127.07 30.7086 127.809 31.1943 128.618 31.7306C129.428 32.2669 130.511 32.7526 131.866 33.1878C133.222 33.6229 134.588 33.8404 135.965 33.8404C137.341 33.8404 138.707 33.6229 140.063 33.1878C141.419 32.7526 142.501 32.2669 143.311 31.7306C144.12 31.1943 144.859 30.7086 145.527 30.2735C146.195 29.8384 146.63 29.6208 146.832 29.6208C148.067 29.6208 149.195 29.8232 150.217 30.228C151.239 30.6328 152.104 31.1741 152.813 31.8521C153.521 32.53 154.148 33.3497 154.695 34.3109C155.241 35.2722 155.676 36.2588 156 37.2707C156.324 38.2826 156.592 39.3805 156.804 40.5644C157.017 41.7483 157.159 42.8513 157.229 43.8733C157.3 44.8953 157.336 45.9426 157.336 47.0152ZM126.25 8.24983C126.25 10.395 125.492 12.2265 123.974 13.7444C122.456 15.2622 120.624 16.0211 118.479 16.0211C116.334 16.0211 114.502 15.2622 112.985 13.7444C111.467 12.2265 110.708 10.395 110.708 8.24983C110.708 6.10461 111.467 4.27309 112.985 2.75526C114.502 1.23743 116.334 0.478516 118.479 0.478516C120.624 0.478516 122.456 1.23743 123.974 2.75526C125.492 4.27309 126.25 6.10461 126.25 8.24983ZM147.622 19.9068C147.622 23.1246 146.483 25.8718 144.206 28.1486C141.93 30.4253 139.182 31.5637 135.965 31.5637C132.747 31.5637 130 30.4253 127.723 28.1486C125.446 25.8718 124.308 23.1246 124.308 19.9068C124.308 16.689 125.446 13.9417 127.723 11.6649C130 9.3882 132.747 8.24983 135.965 8.24983C139.182 8.24983 141.93 9.3882 144.206 11.6649C146.483 13.9417 147.622 16.689 147.622 19.9068ZM165.107 26.737C165.107 28.3155 164.54 29.5146 163.407 30.3342C162.274 31.1539 160.877 31.5637 159.218 31.5637H155.15C153.065 29.0745 150.384 27.7792 147.105 27.678C148.745 25.3102 149.564 22.7198 149.564 19.9068C149.564 19.3199 149.514 18.652 149.413 17.9032C150.748 18.3687 152.094 18.6014 153.45 18.6014C154.644 18.6014 155.848 18.3839 157.062 17.9488C158.277 17.5136 159.263 17.0836 160.022 16.6586C160.781 16.2336 161.221 16.0211 161.343 16.0211C163.852 16.0211 165.107 19.5931 165.107 26.737ZM161.221 8.24983C161.221 10.395 160.462 12.2265 158.945 13.7444C157.427 15.2622 155.595 16.0211 153.45 16.0211C151.305 16.0211 149.473 15.2622 147.955 13.7444C146.438 12.2265 145.679 10.395 145.679 8.24983C145.679 6.10461 146.438 4.27309 147.955 2.75526C149.473 1.23743 151.305 0.478516 153.45 0.478516C155.595 0.478516 157.427 1.23743 158.945 2.75526C160.462 4.27309 161.221 6.10461 161.221 8.24983Z" fill="#353333"/>
</g>
<path d="M137.093 95.6982C138.441 95.6316 139.792 95.7584 141.104 96.0732C141.993 96.2812 142.866 96.5526 143.716 96.8857C146.269 97.893 148.557 99.4683 150.407 101.492C151.522 102.713 152.464 104.081 153.208 105.557C153.886 106.923 154.394 108.367 154.721 109.856C154.894 110.634 155.007 111.423 155.059 112.218C155.109 113.031 155.117 113.846 155.083 114.659C155.048 115.637 154.917 116.61 154.691 117.562C154.495 118.39 154.249 119.206 153.955 120.005C153.603 120.91 153.183 121.789 152.701 122.632C152.157 123.623 151.582 124.595 151.028 125.576C150.312 126.844 149.575 128.099 148.849 129.363C148.234 130.442 147.646 131.535 147.007 132.598C146.406 133.609 145.855 134.621 145.253 135.633C144.652 136.645 144.088 137.687 143.5 138.709C142.825 139.896 142.121 141.069 141.435 142.253C140.685 143.555 139.949 144.864 139.192 146.162C139.024 146.496 138.82 146.811 138.583 147.1C138.354 147.318 138.078 147.483 137.776 147.58C137.474 147.677 137.154 147.705 136.839 147.661C136.525 147.618 136.224 147.505 135.959 147.329C135.695 147.154 135.474 146.92 135.313 146.647C134.563 145.268 133.749 143.926 132.948 142.566C132.252 141.357 131.557 140.144 130.863 138.928L129.238 136.115C128.619 135.039 128.008 133.96 127.386 132.888C126.765 131.815 126.112 130.705 125.484 129.609C124.562 127.994 123.656 126.369 122.727 124.757C122.105 123.684 121.476 122.611 120.916 121.505C120.402 120.458 119.994 119.364 119.696 118.237C119.46 117.365 119.293 116.475 119.196 115.576C119.11 114.68 119.084 113.778 119.118 112.878C119.144 111.857 119.268 110.84 119.49 109.843C119.699 108.91 119.977 107.994 120.321 107.102C120.763 105.943 121.329 104.836 122.01 103.8C122.519 103.016 123.092 102.276 123.723 101.587C124.337 100.902 125.004 100.266 125.717 99.6846C126.468 99.0798 127.265 98.5336 128.099 98.0498C129.191 97.426 130.343 96.9135 131.539 96.5215C132.638 96.1633 133.77 95.9123 134.917 95.7725C135.641 95.7056 136.367 95.6808 137.093 95.6982Z" fill="url(#paint2_linear_245_4366)"/>
<path d="M137.102 120.29C134.346 120.29 131.596 120.255 128.84 120.303C127.407 120.331 126.083 119.138 126.104 117.554C126.145 114.523 126.117 111.499 126.117 108.469C126.117 106.878 127.221 105.754 128.819 105.719C129.45 105.706 130.074 105.706 130.705 105.719C130.931 105.726 131.089 105.651 131.212 105.452C131.534 104.938 131.877 104.437 132.213 103.936C132.768 103.114 133.536 102.675 134.551 102.682C136.265 102.695 137.98 102.689 139.694 102.682C140.695 102.675 141.449 103.114 141.998 103.923C142.327 104.403 142.656 104.883 142.958 105.383C143.115 105.644 143.314 105.712 143.602 105.719C144.363 105.726 145.131 105.658 145.892 105.767C147.099 105.939 148.093 107.022 148.093 108.243C148.107 111.417 148.107 114.599 148.093 117.773C148.086 119.131 146.928 120.276 145.556 120.283C142.745 120.297 139.927 120.29 137.102 120.29ZM137.102 118.068C140.352 118.075 142.985 115.476 142.978 112.226C142.964 108.805 140.194 106.364 137.116 106.364C133.866 106.371 131.233 108.962 131.246 112.206C131.26 115.668 134.071 118.096 137.102 118.068ZM144.576 109.415C144.747 109.415 144.919 109.429 145.09 109.415C145.501 109.394 145.783 109.113 145.803 108.722C145.824 108.339 145.522 107.982 145.124 107.955C144.775 107.934 144.418 107.934 144.068 107.955C143.691 107.975 143.39 108.318 143.383 108.688C143.376 109.058 143.671 109.374 144.061 109.408C144.233 109.429 144.404 109.415 144.576 109.415Z" fill="white"/>
<path d="M133.797 112.22C133.797 110.396 135.278 108.895 137.095 108.881C138.919 108.867 140.427 110.376 140.427 112.213C140.427 114.051 138.912 115.566 137.095 115.546C135.257 115.525 133.797 114.051 133.797 112.22Z" fill="white"/>
<path d="M100.111 160.682V153.985H103.01C103.61 153.985 104.126 154.084 104.56 154.281C104.994 154.473 105.328 154.75 105.564 155.114C105.8 155.477 105.918 155.911 105.918 156.415C105.918 156.912 105.8 157.343 105.564 157.706C105.328 158.07 104.994 158.35 104.56 158.548C104.126 158.74 103.61 158.835 103.01 158.835H100.972L101.661 158.137V160.682H100.111ZM101.661 158.309L100.972 157.572H102.924C103.402 157.572 103.759 157.47 103.995 157.266C104.231 157.062 104.349 156.778 104.349 156.415C104.349 156.045 104.231 155.758 103.995 155.554C103.759 155.35 103.402 155.248 102.924 155.248H100.972L101.661 154.511V158.309ZM110.142 155.458C110.55 155.458 110.913 155.541 111.232 155.707C111.557 155.866 111.813 156.115 111.998 156.453C112.182 156.785 112.275 157.212 112.275 157.735V160.682H110.783V157.965C110.783 157.55 110.69 157.244 110.505 157.046C110.326 156.848 110.071 156.75 109.74 156.75C109.504 156.75 109.29 156.801 109.099 156.903C108.914 156.998 108.767 157.148 108.659 157.352C108.557 157.556 108.506 157.818 108.506 158.137V160.682H107.013V153.583H108.506V156.96L108.171 156.53C108.356 156.185 108.62 155.92 108.965 155.735C109.309 155.551 109.701 155.458 110.142 155.458ZM116.114 160.758C115.566 160.758 115.078 160.643 114.651 160.414C114.23 160.184 113.895 159.872 113.646 159.476C113.404 159.074 113.283 158.618 113.283 158.108C113.283 157.591 113.404 157.135 113.646 156.74C113.895 156.338 114.23 156.026 114.651 155.802C115.078 155.573 115.566 155.458 116.114 155.458C116.656 155.458 117.141 155.573 117.569 155.802C117.996 156.026 118.331 156.335 118.573 156.73C118.815 157.126 118.937 157.585 118.937 158.108C118.937 158.618 118.815 159.074 118.573 159.476C118.331 159.872 117.996 160.184 117.569 160.414C117.141 160.643 116.656 160.758 116.114 160.758ZM116.114 159.534C116.363 159.534 116.586 159.476 116.784 159.361C116.982 159.247 117.138 159.084 117.253 158.873C117.368 158.657 117.425 158.401 117.425 158.108C117.425 157.808 117.368 157.553 117.253 157.343C117.138 157.132 116.982 156.97 116.784 156.855C116.586 156.74 116.363 156.683 116.114 156.683C115.866 156.683 115.642 156.74 115.445 156.855C115.247 156.97 115.087 157.132 114.966 157.343C114.851 157.553 114.794 157.808 114.794 158.108C114.794 158.401 114.851 158.657 114.966 158.873C115.087 159.084 115.247 159.247 115.445 159.361C115.642 159.476 115.866 159.534 116.114 159.534ZM122.039 160.758C121.433 160.758 120.961 160.605 120.623 160.299C120.285 159.986 120.116 159.524 120.116 158.912V154.396H121.608V158.893C121.608 159.109 121.666 159.278 121.781 159.4C121.895 159.514 122.052 159.572 122.249 159.572C122.485 159.572 122.686 159.508 122.852 159.381L123.254 160.433C123.101 160.541 122.916 160.624 122.699 160.682C122.489 160.733 122.269 160.758 122.039 160.758ZM119.322 156.797V155.649H122.89V156.797H119.322ZM126.382 160.758C125.834 160.758 125.346 160.643 124.918 160.414C124.497 160.184 124.163 159.872 123.914 159.476C123.671 159.074 123.55 158.618 123.55 158.108C123.55 157.591 123.671 157.135 123.914 156.74C124.163 156.338 124.497 156.026 124.918 155.802C125.346 155.573 125.834 155.458 126.382 155.458C126.924 155.458 127.409 155.573 127.836 155.802C128.264 156.026 128.598 156.335 128.841 156.73C129.083 157.126 129.204 157.585 129.204 158.108C129.204 158.618 129.083 159.074 128.841 159.476C128.598 159.872 128.264 160.184 127.836 160.414C127.409 160.643 126.924 160.758 126.382 160.758ZM126.382 159.534C126.631 159.534 126.854 159.476 127.052 159.361C127.25 159.247 127.406 159.084 127.521 158.873C127.635 158.657 127.693 158.401 127.693 158.108C127.693 157.808 127.635 157.553 127.521 157.343C127.406 157.132 127.25 156.97 127.052 156.855C126.854 156.74 126.631 156.683 126.382 156.683C126.133 156.683 125.91 156.74 125.712 156.855C125.515 156.97 125.355 157.132 125.234 157.343C125.119 157.553 125.062 157.808 125.062 158.108C125.062 158.401 125.119 158.657 125.234 158.873C125.355 159.084 125.515 159.247 125.712 159.361C125.91 159.476 126.133 159.534 126.382 159.534ZM132.622 162.614C132.138 162.614 131.669 162.554 131.216 162.432C130.77 162.318 130.396 162.142 130.097 161.906L130.69 160.835C130.907 161.013 131.181 161.154 131.513 161.256C131.851 161.364 132.182 161.418 132.508 161.418C133.037 161.418 133.42 161.3 133.656 161.064C133.898 160.828 134.019 160.478 134.019 160.012V159.237L134.115 157.945L134.096 156.644V155.535H135.512V159.821C135.512 160.777 135.263 161.482 134.765 161.935C134.268 162.388 133.554 162.614 132.622 162.614ZM132.393 160.433C131.914 160.433 131.481 160.331 131.092 160.127C130.709 159.916 130.4 159.626 130.164 159.256C129.934 158.88 129.819 158.443 129.819 157.945C129.819 157.442 129.934 157.005 130.164 156.635C130.4 156.258 130.709 155.968 131.092 155.764C131.481 155.56 131.914 155.458 132.393 155.458C132.827 155.458 133.209 155.547 133.541 155.726C133.873 155.898 134.131 156.169 134.316 156.539C134.501 156.903 134.593 157.371 134.593 157.945C134.593 158.513 134.501 158.982 134.316 159.352C134.131 159.715 133.873 159.986 133.541 160.165C133.209 160.344 132.827 160.433 132.393 160.433ZM132.689 159.208C132.951 159.208 133.184 159.157 133.388 159.055C133.592 158.947 133.751 158.797 133.866 158.606C133.981 158.414 134.038 158.194 134.038 157.945C134.038 157.69 133.981 157.47 133.866 157.285C133.751 157.094 133.592 156.947 133.388 156.845C133.184 156.737 132.951 156.683 132.689 156.683C132.428 156.683 132.195 156.737 131.991 156.845C131.787 156.947 131.624 157.094 131.503 157.285C131.388 157.47 131.331 157.69 131.331 157.945C131.331 158.194 131.388 158.414 131.503 158.606C131.624 158.797 131.787 158.947 131.991 159.055C132.195 159.157 132.428 159.208 132.689 159.208ZM136.901 160.682V155.535H138.326V156.989L138.125 156.568C138.278 156.204 138.524 155.93 138.862 155.745C139.2 155.554 139.611 155.458 140.096 155.458V156.836C140.032 156.829 139.975 156.826 139.924 156.826C139.873 156.82 139.819 156.817 139.761 156.817C139.353 156.817 139.021 156.935 138.766 157.171C138.518 157.4 138.393 157.761 138.393 158.252V160.682H136.901ZM143.804 160.682V159.677L143.709 159.457V157.658C143.709 157.34 143.61 157.091 143.412 156.912C143.221 156.734 142.924 156.644 142.522 156.644C142.248 156.644 141.977 156.689 141.709 156.778C141.448 156.861 141.224 156.976 141.039 157.123L140.504 156.08C140.784 155.882 141.122 155.729 141.518 155.621C141.913 155.512 142.315 155.458 142.723 155.458C143.508 155.458 144.117 155.643 144.551 156.013C144.984 156.383 145.201 156.96 145.201 157.745V160.682H143.804ZM142.235 160.758C141.834 160.758 141.489 160.691 141.202 160.557C140.915 160.417 140.695 160.229 140.542 159.993C140.389 159.757 140.312 159.492 140.312 159.199C140.312 158.893 140.386 158.625 140.532 158.395C140.685 158.166 140.925 157.987 141.25 157.859C141.575 157.725 141.999 157.658 142.522 157.658H143.89V158.529H142.685C142.334 158.529 142.092 158.586 141.958 158.701C141.83 158.816 141.767 158.96 141.767 159.132C141.767 159.323 141.84 159.476 141.987 159.591C142.14 159.699 142.347 159.754 142.608 159.754C142.857 159.754 143.08 159.696 143.278 159.581C143.476 159.46 143.619 159.285 143.709 159.055L143.938 159.744C143.83 160.076 143.632 160.328 143.345 160.5C143.058 160.672 142.688 160.758 142.235 160.758ZM149.594 160.758C149.16 160.758 148.781 160.663 148.456 160.471C148.13 160.28 147.875 159.99 147.69 159.601C147.512 159.205 147.422 158.708 147.422 158.108C147.422 157.502 147.509 157.005 147.681 156.616C147.853 156.227 148.102 155.936 148.427 155.745C148.752 155.554 149.141 155.458 149.594 155.458C150.079 155.458 150.513 155.57 150.895 155.793C151.284 156.01 151.591 156.316 151.814 156.711C152.043 157.107 152.158 157.572 152.158 158.108C152.158 158.65 152.043 159.119 151.814 159.514C151.591 159.91 151.284 160.216 150.895 160.433C150.513 160.65 150.079 160.758 149.594 160.758ZM146.552 162.538V155.535H147.977V156.587L147.949 158.118L148.044 159.639V162.538H146.552ZM149.336 159.534C149.585 159.534 149.805 159.476 149.996 159.361C150.194 159.247 150.35 159.084 150.465 158.873C150.586 158.657 150.647 158.401 150.647 158.108C150.647 157.808 150.586 157.553 150.465 157.343C150.35 157.132 150.194 156.97 149.996 156.855C149.805 156.74 149.585 156.683 149.336 156.683C149.087 156.683 148.864 156.74 148.666 156.855C148.468 156.97 148.312 157.132 148.197 157.343C148.083 157.553 148.025 157.808 148.025 158.108C148.025 158.401 148.083 158.657 148.197 158.873C148.312 159.084 148.468 159.247 148.666 159.361C148.864 159.476 149.087 159.534 149.336 159.534ZM156.286 155.458C156.694 155.458 157.057 155.541 157.376 155.707C157.702 155.866 157.957 156.115 158.142 156.453C158.327 156.785 158.419 157.212 158.419 157.735V160.682H156.927V157.965C156.927 157.55 156.834 157.244 156.649 157.046C156.471 156.848 156.215 156.75 155.884 156.75C155.648 156.75 155.434 156.801 155.243 156.903C155.058 156.998 154.911 157.148 154.803 157.352C154.701 157.556 154.65 157.818 154.65 158.137V160.682H153.157V153.583H154.65V156.96L154.315 156.53C154.5 156.185 154.764 155.92 155.109 155.735C155.453 155.551 155.846 155.458 156.286 155.458ZM162.364 160.758C161.777 160.758 161.26 160.643 160.814 160.414C160.374 160.184 160.033 159.872 159.79 159.476C159.548 159.074 159.427 158.618 159.427 158.108C159.427 157.591 159.545 157.135 159.781 156.74C160.023 156.338 160.351 156.026 160.766 155.802C161.181 155.573 161.649 155.458 162.172 155.458C162.676 155.458 163.129 155.566 163.531 155.783C163.939 155.994 164.261 156.3 164.497 156.702C164.733 157.097 164.851 157.572 164.851 158.127C164.851 158.185 164.848 158.252 164.842 158.328C164.835 158.398 164.829 158.465 164.822 158.529H160.642V157.658H164.038L163.464 157.917C163.464 157.649 163.41 157.416 163.301 157.218C163.193 157.021 163.043 156.868 162.852 156.759C162.66 156.644 162.437 156.587 162.182 156.587C161.927 156.587 161.7 156.644 161.503 156.759C161.311 156.868 161.161 157.024 161.053 157.228C160.945 157.426 160.89 157.662 160.89 157.936V158.166C160.89 158.446 160.951 158.695 161.072 158.912C161.2 159.122 161.375 159.285 161.598 159.4C161.828 159.508 162.096 159.562 162.402 159.562C162.676 159.562 162.915 159.521 163.12 159.438C163.33 159.355 163.521 159.231 163.694 159.065L164.488 159.926C164.252 160.194 163.955 160.401 163.598 160.548C163.241 160.688 162.829 160.758 162.364 160.758ZM165.845 160.682V155.535H167.27V156.989L167.069 156.568C167.222 156.204 167.468 155.93 167.806 155.745C168.144 155.554 168.555 155.458 169.04 155.458V156.836C168.976 156.829 168.919 156.826 168.868 156.826C168.817 156.82 168.763 156.817 168.705 156.817C168.297 156.817 167.965 156.935 167.71 157.171C167.462 157.4 167.337 157.761 167.337 158.252V160.682H165.845ZM171.697 160.758C171.256 160.758 170.832 160.707 170.424 160.605C170.022 160.497 169.703 160.363 169.467 160.203L169.965 159.132C170.201 159.278 170.478 159.4 170.797 159.495C171.123 159.585 171.441 159.629 171.754 159.629C172.098 159.629 172.341 159.588 172.481 159.505C172.628 159.422 172.701 159.307 172.701 159.16C172.701 159.039 172.644 158.95 172.529 158.893C172.42 158.829 172.274 158.781 172.089 158.749C171.904 158.717 171.7 158.685 171.477 158.653C171.26 158.622 171.04 158.58 170.816 158.529C170.593 158.472 170.389 158.389 170.204 158.28C170.019 158.172 169.869 158.025 169.754 157.84C169.646 157.655 169.592 157.416 169.592 157.123C169.592 156.797 169.684 156.51 169.869 156.262C170.061 156.013 170.335 155.818 170.692 155.678C171.049 155.531 171.477 155.458 171.974 155.458C172.325 155.458 172.682 155.496 173.046 155.573C173.409 155.649 173.712 155.761 173.954 155.908L173.457 156.97C173.208 156.823 172.956 156.724 172.701 156.673C172.452 156.616 172.21 156.587 171.974 156.587C171.642 156.587 171.4 156.632 171.247 156.721C171.094 156.81 171.017 156.925 171.017 157.065C171.017 157.193 171.072 157.289 171.18 157.352C171.295 157.416 171.445 157.467 171.63 157.505C171.815 157.544 172.015 157.579 172.232 157.611C172.456 157.636 172.679 157.678 172.902 157.735C173.125 157.792 173.326 157.875 173.505 157.984C173.69 158.086 173.84 158.229 173.954 158.414C174.069 158.593 174.127 158.829 174.127 159.122C174.127 159.441 174.031 159.725 173.84 159.974C173.648 160.216 173.371 160.407 173.007 160.548C172.65 160.688 172.213 160.758 171.697 160.758Z" fill="white"/>
<path d="M246.454 100.389H248.004V107.086H246.454V100.389ZM243.412 107.086H241.862V100.389H243.412V107.086ZM246.569 104.34H243.297V103.03H246.569V104.34ZM251.932 107.162C251.384 107.162 250.896 107.048 250.468 106.818C250.047 106.588 249.713 106.276 249.464 105.88C249.221 105.479 249.1 105.023 249.1 104.512C249.1 103.996 249.221 103.54 249.464 103.144C249.713 102.743 250.047 102.43 250.468 102.207C250.896 101.977 251.384 101.862 251.932 101.862C252.474 101.862 252.959 101.977 253.386 102.207C253.814 102.43 254.148 102.739 254.391 103.135C254.633 103.53 254.754 103.989 254.754 104.512C254.754 105.023 254.633 105.479 254.391 105.88C254.148 106.276 253.814 106.588 253.386 106.818C252.959 107.048 252.474 107.162 251.932 107.162ZM251.932 105.938C252.181 105.938 252.404 105.88 252.602 105.766C252.8 105.651 252.956 105.488 253.071 105.278C253.185 105.061 253.243 104.806 253.243 104.512C253.243 104.213 253.185 103.958 253.071 103.747C252.956 103.537 252.8 103.374 252.602 103.259C252.404 103.144 252.181 103.087 251.932 103.087C251.683 103.087 251.46 103.144 251.262 103.259C251.065 103.374 250.905 103.537 250.784 103.747C250.669 103.958 250.612 104.213 250.612 104.512C250.612 104.806 250.669 105.061 250.784 105.278C250.905 105.488 251.065 105.651 251.262 105.766C251.46 105.88 251.683 105.938 251.932 105.938ZM257.857 107.162C257.251 107.162 256.779 107.009 256.441 106.703C256.103 106.391 255.934 105.928 255.934 105.316V100.8H257.426V105.297C257.426 105.514 257.484 105.683 257.598 105.804C257.713 105.919 257.869 105.976 258.067 105.976C258.303 105.976 258.504 105.912 258.67 105.785L259.072 106.837C258.919 106.946 258.734 107.029 258.517 107.086C258.306 107.137 258.086 107.162 257.857 107.162ZM255.14 103.202V102.054H258.708V103.202H255.14ZM262.305 107.162C261.718 107.162 261.202 107.048 260.755 106.818C260.315 106.588 259.974 106.276 259.732 105.88C259.489 105.479 259.368 105.023 259.368 104.512C259.368 103.996 259.486 103.54 259.722 103.144C259.964 102.743 260.293 102.43 260.707 102.207C261.122 101.977 261.591 101.862 262.114 101.862C262.618 101.862 263.07 101.971 263.472 102.188C263.88 102.398 264.203 102.704 264.439 103.106C264.675 103.501 264.793 103.977 264.793 104.532C264.793 104.589 264.789 104.656 264.783 104.732C264.777 104.803 264.77 104.87 264.764 104.933H260.583V104.063H263.979L263.405 104.321C263.405 104.053 263.351 103.82 263.243 103.623C263.134 103.425 262.984 103.272 262.793 103.163C262.602 103.049 262.378 102.991 262.123 102.991C261.868 102.991 261.642 103.049 261.444 103.163C261.253 103.272 261.103 103.428 260.994 103.632C260.886 103.83 260.832 104.066 260.832 104.34V104.57C260.832 104.85 260.892 105.099 261.014 105.316C261.141 105.527 261.316 105.689 261.54 105.804C261.769 105.912 262.037 105.967 262.343 105.967C262.618 105.967 262.857 105.925 263.061 105.842C263.271 105.759 263.463 105.635 263.635 105.469L264.429 106.33C264.193 106.598 263.896 106.805 263.539 106.952C263.182 107.092 262.771 107.162 262.305 107.162ZM265.786 107.086V99.9872H267.279V107.086H265.786ZM270.395 107.162C269.955 107.162 269.531 107.111 269.123 107.009C268.721 106.901 268.402 106.767 268.166 106.608L268.664 105.536C268.9 105.683 269.177 105.804 269.496 105.9C269.821 105.989 270.14 106.034 270.453 106.034C270.797 106.034 271.04 105.992 271.18 105.909C271.327 105.826 271.4 105.711 271.4 105.565C271.4 105.444 271.342 105.354 271.228 105.297C271.119 105.233 270.973 105.185 270.788 105.153C270.603 105.122 270.399 105.09 270.175 105.058C269.958 105.026 269.738 104.984 269.515 104.933C269.292 104.876 269.088 104.793 268.903 104.685C268.718 104.576 268.568 104.429 268.453 104.245C268.345 104.06 268.291 103.82 268.291 103.527C268.291 103.202 268.383 102.915 268.568 102.666C268.759 102.417 269.034 102.223 269.391 102.082C269.748 101.936 270.175 101.862 270.673 101.862C271.024 101.862 271.381 101.901 271.744 101.977C272.108 102.054 272.411 102.165 272.653 102.312L272.156 103.374C271.907 103.227 271.655 103.128 271.4 103.077C271.151 103.02 270.909 102.991 270.673 102.991C270.341 102.991 270.099 103.036 269.946 103.125C269.793 103.214 269.716 103.329 269.716 103.47C269.716 103.597 269.77 103.693 269.879 103.757C269.994 103.82 270.143 103.871 270.328 103.91C270.513 103.948 270.714 103.983 270.931 104.015C271.154 104.04 271.378 104.082 271.601 104.139C271.824 104.197 272.025 104.28 272.204 104.388C272.388 104.49 272.538 104.634 272.653 104.819C272.768 104.997 272.825 105.233 272.825 105.527C272.825 105.845 272.73 106.129 272.538 106.378C272.347 106.62 272.07 106.812 271.706 106.952C271.349 107.092 270.912 107.162 270.395 107.162Z" fill="white"/>
<path d="M255.052 42.1025C256.4 42.0359 257.75 42.1627 259.062 42.4775C259.952 42.6855 260.825 42.9569 261.675 43.29C264.227 44.2973 266.516 45.8726 268.365 47.8965C269.48 49.1172 270.422 50.4851 271.166 51.9609C271.844 53.3273 272.352 54.7713 272.68 56.2607C272.852 57.038 272.965 57.8277 273.018 58.6221C273.068 59.4349 273.075 60.2499 273.041 61.0635C273.007 62.0418 272.876 63.0143 272.649 63.9668C272.453 64.7947 272.208 65.6108 271.913 66.4092C271.561 67.3148 271.142 68.1928 270.659 69.0361C270.115 70.0276 269.54 70.9991 268.986 71.9805C268.27 73.2484 267.534 74.503 266.808 75.7676C266.193 76.8468 265.604 77.9396 264.966 79.002C264.364 80.0137 263.813 81.0254 263.212 82.0371C262.61 83.0488 262.047 84.0914 261.459 85.1133C260.783 86.3004 260.079 87.4735 259.394 88.6572C258.643 89.959 257.907 91.268 257.15 92.5664C256.983 92.9003 256.779 93.2148 256.542 93.5039C256.312 93.7225 256.036 93.8871 255.734 93.9844C255.432 94.0817 255.112 94.1088 254.798 94.0654C254.483 94.022 254.182 93.909 253.918 93.7334C253.654 93.5578 253.433 93.3245 253.271 93.0518C252.521 91.6724 251.707 90.3298 250.906 88.9707C250.21 87.7612 249.515 86.5483 248.821 85.332L247.196 82.5195C246.578 81.4437 245.966 80.3644 245.345 79.292C244.723 78.2195 244.071 77.1097 243.442 76.0137C242.52 74.3984 241.615 72.773 240.686 71.1611C240.064 70.0887 239.435 69.0154 238.874 67.9092C238.361 66.8626 237.952 65.7682 237.654 64.6416C237.419 63.7689 237.252 62.879 237.154 61.9805C237.069 61.0839 237.042 60.1822 237.076 59.2822C237.102 58.261 237.227 57.2444 237.448 56.2471C237.657 55.3142 237.935 54.398 238.279 53.5059C238.721 52.3477 239.288 51.2404 239.969 50.2041C240.478 49.4207 241.05 48.6802 241.682 47.9912C242.296 47.3064 242.963 46.6702 243.676 46.0889C244.427 45.4841 245.223 44.9379 246.058 44.4541C247.15 43.8303 248.302 43.3178 249.497 42.9258C250.596 42.5676 251.728 42.3166 252.876 42.1768C253.599 42.1099 254.326 42.0851 255.052 42.1025Z" fill="url(#paint3_linear_245_4366)"/>
<path d="M266.631 62.198C266.631 63.2694 266.646 64.3566 266.631 65.4281C266.615 66.3735 266.079 66.988 265.26 67.0353C264.377 67.0983 263.684 66.5468 263.653 65.5699C263.621 64.7348 263.243 64.593 262.518 64.593C257.397 64.6087 252.276 64.6245 247.171 64.593C246.43 64.593 246.1 64.7821 246.037 65.5856C245.958 66.5783 245.312 67.0983 244.429 67.0353C243.594 66.9722 243.09 66.3892 243.074 65.4123C243.059 61.9143 243.059 58.4321 243.074 54.9341C243.074 53.9887 243.626 53.3742 244.445 53.3112C245.264 53.2481 245.974 53.8469 246.037 54.8081C246.115 56.0371 246.084 57.2661 246.1 58.5109C246.1 59.5508 246.1 59.5508 247.171 59.5508C247.691 59.5508 248.227 59.5351 248.747 59.5508C249.692 59.5666 250.086 59.929 250.196 60.8586C250.401 62.5446 250.732 62.8597 252.434 62.8597C255.475 62.8597 258.516 62.8597 261.573 62.8597C263.117 62.8597 263.59 62.3713 263.605 60.8429C263.621 60.1653 263.59 59.472 263.637 58.7945C263.716 57.8018 264.314 57.2031 265.149 57.2031C266.016 57.2188 266.615 57.8806 266.631 58.889C266.631 59.992 266.631 61.095 266.631 62.198Z" fill="white"/>
<path d="M256.861 62.4495C255.254 62.4495 253.662 62.4652 252.055 62.4495C250.952 62.4495 250.511 62.0083 250.495 60.9368C250.48 59.9914 250.495 59.046 250.495 58.1006C250.495 57.2813 250.873 56.7613 251.677 56.5565C255.254 55.6111 258.799 55.8632 262.313 56.8559C262.975 57.0449 263.274 57.5492 263.274 58.2267C263.29 59.1248 263.29 60.0072 263.274 60.9053C263.258 61.9925 262.817 62.4337 261.73 62.4495C260.123 62.4652 258.484 62.4495 256.861 62.4495Z" fill="white"/>
<path d="M248.399 55.4221C249.518 55.4063 250.369 56.2257 250.385 57.3287C250.4 58.4159 249.549 59.2825 248.446 59.2982C247.375 59.314 246.461 58.4474 246.461 57.3759C246.445 56.3202 247.328 55.4379 248.399 55.4221Z" fill="white"/>
<path d="M255.065 50.7273C255.364 50.9479 255.616 50.8691 255.837 50.8848C256.136 50.9164 256.451 50.9794 256.467 51.3418C256.483 51.7515 256.136 51.846 255.805 51.8618C255.254 51.8775 254.702 51.909 254.151 51.8618C253.489 51.7987 253.332 51.4678 253.694 50.9164C253.993 50.4752 254.324 50.0812 254.639 49.6558C254.734 49.514 254.955 49.3722 254.828 49.1831C254.765 49.0886 254.545 49.1043 254.403 49.0886C254.246 49.0728 254.088 49.0886 253.93 49.0571C253.71 49.0255 253.536 48.8837 253.521 48.6474C253.521 48.3953 253.678 48.2377 253.899 48.2062C254.608 48.0959 255.317 48.0171 256.01 48.1747C256.546 48.3007 256.593 48.6474 256.294 49.0571C255.916 49.6085 255.506 50.1443 255.065 50.7273Z" fill="white"/>
<path d="M251.268 52.9169C250.874 52.8066 250.354 52.9011 250.402 52.3654C250.449 51.8769 250.922 51.9399 251.268 51.8927C251.379 51.8769 251.473 51.8769 251.583 51.8927C251.993 51.9242 252.497 51.7824 252.718 52.2236C252.954 52.6648 252.497 52.9326 252.308 53.2478C252.119 53.5471 251.662 53.878 252.466 54.0041C252.686 54.0356 252.812 54.2404 252.781 54.4768C252.749 54.7131 252.592 54.8392 252.356 54.8864C252.308 54.9022 252.245 54.9022 252.198 54.9022C251.615 54.8392 250.859 55.2016 250.496 54.6501C250.087 54.0356 250.922 53.6889 251.142 53.2005C251.174 53.1217 251.205 53.0429 251.268 52.9169Z" fill="white"/>
<path d="M18.6006 42.1025C19.9484 42.0359 21.2992 42.1627 22.6113 42.4775C23.5004 42.6855 24.3737 42.9569 25.2236 43.29C27.7759 44.2973 30.0645 45.8726 31.9141 47.8965C33.0291 49.1172 33.9712 50.4851 34.7148 51.9609C35.3929 53.3273 35.9012 54.7713 36.2285 56.2607C36.401 57.038 36.5139 57.8277 36.5664 58.6221C36.6165 59.4349 36.6242 60.2499 36.5898 61.0635C36.5555 62.0418 36.4245 63.0143 36.1982 63.9668C36.0021 64.7947 35.7563 65.6108 35.4619 66.4092C35.1102 67.3148 34.6908 68.1928 34.208 69.0361C33.664 70.0276 33.0893 70.9991 32.5352 71.9805C31.8189 73.2484 31.0828 74.503 30.3564 75.7676C29.7415 76.8468 29.1533 77.9396 28.5146 79.002C27.9132 80.0137 27.3622 81.0254 26.7607 82.0371C26.1593 83.0488 25.5957 84.0914 25.0078 85.1133C24.3321 86.3004 23.6283 87.4735 22.9424 88.6572C22.1923 89.959 21.4561 91.268 20.6992 92.5664C20.5318 92.9003 20.3276 93.2148 20.0908 93.5039C19.8612 93.7225 19.5852 93.8871 19.2832 93.9844C18.9812 94.0817 18.661 94.1088 18.3467 94.0654C18.0322 94.022 17.731 93.909 17.4668 93.7334C17.2026 93.5578 16.9818 93.3245 16.8203 93.0518C16.0702 91.6724 15.2559 90.3298 14.4551 88.9707C13.7591 87.7612 13.0639 86.5483 12.3701 85.332L10.7451 82.5195C10.1268 81.4437 9.51524 80.3644 8.89355 79.292C8.27184 78.2195 7.61968 77.1097 6.99121 76.0137C6.06888 74.3984 5.16346 72.773 4.23438 71.1611C3.61266 70.0887 2.98375 69.0154 2.42285 67.9092C1.90967 66.8626 1.50104 65.7682 1.20312 64.6416C0.96763 63.7689 0.800509 62.879 0.703125 61.9805C0.617689 61.0839 0.591305 60.1822 0.625 59.2822C0.650874 58.261 0.775742 57.2444 0.99707 56.2471C1.2062 55.3142 1.48401 54.398 1.82812 53.5059C2.27007 52.3477 2.83665 51.2404 3.51758 50.2041C4.02642 49.4207 4.59923 48.6802 5.23047 47.9912C5.84438 47.3064 6.51152 46.6702 7.22461 46.0889C7.9756 45.4841 8.77206 44.9379 9.60645 44.4541C10.6984 43.8303 11.8507 43.3178 13.0459 42.9258C14.1452 42.5676 15.2769 42.3166 16.4248 42.1768C17.1479 42.1099 17.8746 42.0851 18.6006 42.1025Z" fill="url(#paint4_linear_245_4366)"/>
<path d="M18.6414 67.0859C19.3361 67.0859 19.9001 66.5993 19.9001 65.9982C19.9001 65.3979 19.9001 64.9113 19.9001 64.9113C23.3365 64.6226 25.6113 62.9578 25.6113 60.2496V60.2053C25.6113 57.4528 23.6752 56.1877 19.8274 55.3667V52.792C20.3814 52.9161 20.955 53.0921 21.5157 53.3203C22.4179 53.6871 23.5144 53.4572 24.0622 52.6358C24.6105 51.8148 24.3143 50.6617 23.2987 50.2435C22.2873 49.8275 21.1774 49.541 19.9479 49.4177V48.7516C19.9479 48.3843 19.3848 48.0859 18.6897 48.0859C17.9946 48.0859 17.431 48.3694 17.431 48.7178C17.431 49.0675 17.431 49.3505 17.431 49.3505C13.7276 49.5949 11.6466 51.415 11.6466 54.0342V54.0789C11.6466 56.831 13.631 58.0526 17.5276 58.8731V61.537C16.5928 61.3989 15.6776 61.1141 14.7461 60.6779C13.7539 60.2136 12.5383 60.3778 11.9369 61.193C11.3351 62.0078 11.5781 63.1654 12.5785 63.6155C14.0482 64.2777 15.7091 64.7103 17.3822 64.8674V65.9771C17.3827 66.5892 17.9463 67.0859 18.6414 67.0859ZM19.8025 59.2286C21.0617 59.5612 21.4243 59.8947 21.4243 60.4936V60.5384C21.4243 61.1821 20.9162 61.559 19.8025 61.6705V59.2286ZM15.9058 53.7454V53.7011C15.9058 53.1242 16.366 52.6801 17.5515 52.5915V54.989C16.2451 54.6559 15.9058 54.3224 15.9058 53.7454Z" fill="white"/>
<line x1="34.7366" y1="58.5306" x2="116.03" y2="40.7748" stroke="url(#paint5_linear_245_4366)" stroke-width="3"/>
<line y1="-1.5" x2="83.21" y2="-1.5" transform="matrix(-0.976968 -0.213386 -0.213386 0.976968 237.004 60.9961)" stroke="url(#paint6_linear_245_4366)" stroke-width="3"/>
<line x1="85.121" y1="83.037" x2="116.755" y2="51.9814" stroke="url(#paint7_linear_245_4366)" stroke-width="3"/>
<line x1="185.695" y1="83.8028" x2="154.64" y2="52.1685" stroke="url(#paint8_linear_245_4366)" stroke-width="3"/>
<line x1="137.061" y1="96.0957" x2="137.061" y2="54.5009" stroke="url(#paint9_linear_245_4366)" stroke-width="3"/>
<path d="M6.75091 107.201C6.21515 107.201 5.70172 107.131 5.21061 106.99C4.7195 106.844 4.32407 106.655 4.0243 106.426L4.55049 105.259C4.8375 105.463 5.17553 105.632 5.56459 105.766C5.96003 105.893 6.35866 105.957 6.76047 105.957C7.06662 105.957 7.31217 105.928 7.49713 105.871C7.68847 105.807 7.82879 105.721 7.91808 105.613C8.00738 105.504 8.05202 105.38 8.05202 105.239C8.05202 105.061 7.98186 104.921 7.84155 104.819C7.70123 104.71 7.51627 104.624 7.28666 104.56C7.05705 104.49 6.80193 104.426 6.5213 104.369C6.24704 104.305 5.9696 104.229 5.68896 104.139C5.41471 104.05 5.16278 103.935 4.93317 103.795C4.70356 103.655 4.51541 103.47 4.36871 103.24C4.2284 103.01 4.15824 102.717 4.15824 102.36C4.15824 101.977 4.26029 101.63 4.46438 101.317C4.67486 100.998 4.98738 100.746 5.40195 100.561C5.8229 100.37 6.34909 100.274 6.98051 100.274C7.40146 100.274 7.81604 100.325 8.22423 100.427C8.63242 100.523 8.99278 100.67 9.3053 100.867L8.82695 102.044C8.51443 101.866 8.20191 101.735 7.88938 101.652C7.57686 101.563 7.27071 101.518 6.97095 101.518C6.67118 101.518 6.42563 101.553 6.23429 101.623C6.04294 101.693 5.90582 101.786 5.8229 101.901C5.73999 102.009 5.69853 102.137 5.69853 102.283C5.69853 102.455 5.76869 102.596 5.90901 102.704C6.04932 102.806 6.23429 102.889 6.46389 102.953C6.6935 103.017 6.94543 103.081 7.21969 103.144C7.50032 103.208 7.77777 103.281 8.05202 103.364C8.33266 103.447 8.58778 103.559 8.81739 103.699C9.04699 103.84 9.23196 104.024 9.37227 104.254C9.51897 104.484 9.59231 104.774 9.59231 105.125C9.59231 105.501 9.48708 105.845 9.2766 106.158C9.06613 106.47 8.75042 106.722 8.32947 106.914C7.91489 107.105 7.38871 107.201 6.75091 107.201ZM13.6745 101.862C14.0827 101.862 14.4463 101.945 14.7652 102.111C15.0904 102.271 15.3456 102.519 15.5305 102.857C15.7155 103.189 15.808 103.616 15.808 104.139V107.086H14.3155V104.369C14.3155 103.954 14.223 103.648 14.0381 103.45C13.8595 103.253 13.6044 103.154 13.2727 103.154C13.0367 103.154 12.8231 103.205 12.6317 103.307C12.4468 103.403 12.3001 103.553 12.1916 103.757C12.0896 103.961 12.0386 104.222 12.0386 104.541V107.086H10.5461V99.9872H12.0386V103.364L11.7037 102.934C11.8887 102.589 12.1534 102.325 12.4978 102.14C12.8422 101.955 13.2344 101.862 13.6745 101.862ZM19.6473 107.162C19.0988 107.162 18.6109 107.048 18.1836 106.818C17.7626 106.588 17.4278 106.276 17.179 105.88C16.9367 105.479 16.8155 105.023 16.8155 104.512C16.8155 103.996 16.9367 103.54 17.179 103.144C17.4278 102.743 17.7626 102.43 18.1836 102.207C18.6109 101.977 19.0988 101.862 19.6473 101.862C20.1895 101.862 20.6742 101.977 21.1015 102.207C21.5289 102.43 21.8637 102.739 22.1061 103.135C22.3484 103.53 22.4696 103.989 22.4696 104.512C22.4696 105.023 22.3484 105.479 22.1061 105.88C21.8637 106.276 21.5289 106.588 21.1015 106.818C20.6742 107.048 20.1895 107.162 19.6473 107.162ZM19.6473 105.938C19.8961 105.938 20.1193 105.88 20.317 105.766C20.5148 105.651 20.671 105.488 20.7858 105.278C20.9006 105.061 20.958 104.806 20.958 104.512C20.958 104.213 20.9006 103.958 20.7858 103.747C20.671 103.537 20.5148 103.374 20.317 103.259C20.1193 103.144 19.8961 103.087 19.6473 103.087C19.3986 103.087 19.1754 103.144 18.9777 103.259C18.7799 103.374 18.6205 103.537 18.4993 103.747C18.3845 103.958 18.3271 104.213 18.3271 104.512C18.3271 104.806 18.3845 105.061 18.4993 105.278C18.6205 105.488 18.7799 105.651 18.9777 105.766C19.1754 105.88 19.3986 105.938 19.6473 105.938ZM26.5095 107.162C26.0758 107.162 25.6963 107.067 25.371 106.875C25.0458 106.684 24.7906 106.394 24.6057 106.005C24.4271 105.609 24.3378 105.112 24.3378 104.512C24.3378 103.906 24.4239 103.409 24.5961 103.02C24.7683 102.631 25.0171 102.341 25.3423 102.149C25.6676 101.958 26.0567 101.862 26.5095 101.862C26.9943 101.862 27.428 101.974 27.8106 102.197C28.1997 102.414 28.5058 102.72 28.7291 103.116C28.9587 103.511 29.0735 103.977 29.0735 104.512C29.0735 105.055 28.9587 105.523 28.7291 105.919C28.5058 106.314 28.1997 106.62 27.8106 106.837C27.428 107.054 26.9943 107.162 26.5095 107.162ZM23.4672 108.942V101.939H24.8927V102.991L24.864 104.522L24.9597 106.043V108.942H23.4672ZM26.2512 105.938C26.5 105.938 26.72 105.88 26.9113 105.766C27.1091 105.651 27.2653 105.488 27.3801 105.278C27.5013 105.061 27.5619 104.806 27.5619 104.512C27.5619 104.213 27.5013 103.958 27.3801 103.747C27.2653 103.537 27.1091 103.374 26.9113 103.259C26.72 103.144 26.5 103.087 26.2512 103.087C26.0025 103.087 25.7792 103.144 25.5815 103.259C25.3838 103.374 25.2275 103.537 25.1127 103.747C24.9979 103.958 24.9405 104.213 24.9405 104.512C24.9405 104.806 24.9979 105.061 25.1127 105.278C25.2275 105.488 25.3838 105.651 25.5815 105.766C25.7792 105.88 26.0025 105.938 26.2512 105.938ZM31.8042 107.162C31.3641 107.162 30.94 107.111 30.5318 107.009C30.13 106.901 29.8111 106.767 29.5751 106.608L30.0726 105.536C30.3086 105.683 30.586 105.804 30.9049 105.9C31.2302 105.989 31.5491 106.034 31.8616 106.034C32.206 106.034 32.4484 105.992 32.5887 105.909C32.7354 105.826 32.8087 105.711 32.8087 105.565C32.8087 105.444 32.7513 105.354 32.6365 105.297C32.5281 105.233 32.3814 105.185 32.1965 105.153C32.0115 105.122 31.8074 105.09 31.5842 105.058C31.3673 105.026 31.1473 104.984 30.924 104.933C30.7008 104.876 30.4967 104.793 30.3117 104.685C30.1268 104.576 29.9769 104.429 29.8621 104.245C29.7537 104.06 29.6995 103.82 29.6995 103.527C29.6995 103.202 29.7919 102.915 29.9769 102.666C30.1682 102.417 30.4425 102.223 30.7997 102.082C31.1568 101.936 31.5842 101.862 32.0817 101.862C32.4324 101.862 32.7896 101.901 33.1532 101.977C33.5167 102.054 33.8197 102.165 34.062 102.312L33.5645 103.374C33.3158 103.227 33.0639 103.128 32.8087 103.077C32.56 103.02 32.3176 102.991 32.0817 102.991C31.75 102.991 31.5076 103.036 31.3546 103.125C31.2015 103.214 31.1249 103.329 31.1249 103.47C31.1249 103.597 31.1792 103.693 31.2876 103.757C31.4024 103.82 31.5523 103.871 31.7372 103.91C31.9222 103.948 32.1231 103.983 32.34 104.015C32.5632 104.04 32.7864 104.082 33.0097 104.139C33.2329 104.197 33.4338 104.28 33.6124 104.388C33.7973 104.49 33.9472 104.634 34.062 104.819C34.1768 104.997 34.2342 105.233 34.2342 105.527C34.2342 105.845 34.1386 106.129 33.9472 106.378C33.7559 106.62 33.4784 106.812 33.1149 106.952C32.7577 107.092 32.3208 107.162 31.8042 107.162Z" fill="white"/>
<defs>
<filter id="filter0_d_245_4366" x="102.822" y="0.478516" width="66.2847" height="62.3989" filterUnits="userSpaceOnUse" color-interpolation-filters="sRGB">
<feFlood flood-opacity="0" result="BackgroundImageFix"/>
<feColorMatrix in="SourceAlpha" type="matrix" values="0 0 0 0 0 0 0 0 0 0 0 0 0 0 0 0 0 0 127 0" result="hardAlpha"/>
<feOffset dy="4"/>
<feGaussianBlur stdDeviation="2"/>
<feComposite in2="hardAlpha" operator="out"/>
<feColorMatrix type="matrix" values="0 0 0 0 0 0 0 0 0 0 0 0 0 0 0 0 0 0 0.25 0"/>
<feBlend mode="normal" in2="BackgroundImageFix" result="effect1_dropShadow_245_4366"/>
<feBlend mode="normal" in="SourceGraphic" in2="effect1_dropShadow_245_4366" result="shape"/>
</filter>
<linearGradient id="paint0_linear_245_4366" x1="199.145" y1="77.0859" x2="199.145" y2="129.086" gradientUnits="userSpaceOnUse">
<stop stop-color="#33FC47"/>
<stop offset="1" stop-color="#1CA92A"/>
</linearGradient>
<linearGradient id="paint1_linear_245_4366" x1="73.2461" y1="77.0859" x2="73.2461" y2="129.086" gradientUnits="userSpaceOnUse">
<stop stop-color="#33FC47"/>
<stop offset="1" stop-color="#1CA92A"/>
</linearGradient>
<linearGradient id="paint2_linear_245_4366" x1="137.104" y1="95.6816" x2="137.104" y2="147.682" gradientUnits="userSpaceOnUse">
<stop stop-color="#33FC47"/>
<stop offset="1" stop-color="#1CA92A"/>
</linearGradient>
<linearGradient id="paint3_linear_245_4366" x1="255.062" y1="42.0859" x2="255.062" y2="94.0859" gradientUnits="userSpaceOnUse">
<stop stop-color="#33FC47"/>
<stop offset="1" stop-color="#1CA92A"/>
</linearGradient>
<linearGradient id="paint4_linear_245_4366" x1="18.6113" y1="42.0859" x2="18.6113" y2="94.0859" gradientUnits="userSpaceOnUse">
<stop stop-color="#33FC47"/>
<stop offset="1" stop-color="#1CA92A"/>
</linearGradient>
<linearGradient id="paint5_linear_245_4366" x1="35.1633" y1="60.4846" x2="116.457" y2="42.7287" gradientUnits="userSpaceOnUse">
<stop stop-color="#2CE23E"/>
<stop offset="0.485" stop-color="#2CDA3E"/>
<stop offset="1" stop-color="#353333"/>
</linearGradient>
<linearGradient id="paint6_linear_245_4366" x1="0" y1="0.5" x2="83.21" y2="0.5" gradientUnits="userSpaceOnUse">
<stop stop-color="#2CE23E"/>
<stop offset="0.485" stop-color="#2CDA3E"/>
<stop offset="1" stop-color="#353333"/>
</linearGradient>
<linearGradient id="paint7_linear_245_4366" x1="86.5222" y1="84.4642" x2="118.156" y2="53.4086" gradientUnits="userSpaceOnUse">
<stop stop-color="#30F344"/>
<stop offset="0.48" stop-color="#2CDA3E"/>
<stop offset="1" stop-color="#353333"/>
</linearGradient>
<linearGradient id="paint8_linear_245_4366" x1="187.122" y1="82.4017" x2="156.067" y2="50.7674" gradientUnits="userSpaceOnUse">
<stop stop-color="#30F243"/>
<stop offset="0.64" stop-color="#309D3A"/>
<stop offset="1" stop-color="#353333"/>
</linearGradient>
<linearGradient id="paint9_linear_245_4366" x1="139.061" y1="96.0957" x2="139.061" y2="54.5009" gradientUnits="userSpaceOnUse">
<stop stop-color="#31F745"/>
<stop offset="0.64" stop-color="#309D3A"/>
<stop offset="1" stop-color="#353333"/>
</linearGradient>
</defs>
</svg>
